.
..............................Site Info...........................

 -   http://www.scenetime.com  *_*   

SceneTime is going to Close sign up on march/1, hurry up! get in before the doors are closed.

     We care to share . Join us on  http://www.scenetime.com 

    Be the first to get new release at  http://www.scenetime.com

        Seed back for speed


...................................NFO:.................................................                                                                                                     
       
     
     
       
       
     
     
                                         
                                         
                EXVID                    
                                         
         
                                         
         Filled the Archives             
                                         
         
                                         
                With:                    
                                         
         
                                         
                                    
     E240                           
                                    
     SP               (C) 2009      
                                         
     
     
     
                                                                                  
                                                                                   
                     Lotus.2011.DVDRip.XviD-EXViD                                   
                                                                                   
                                                                                  
     
                                                                                               
EXViD aims to iNTERNAL those releases which have been lost in the archives.
EXViD aims to PRE non-internal releases which have poor sources and are likely skipped by others. 
http://www.imdb.com/title/tt1723805/
Subtitles: EN
Date: 2012.02

Director: Pascale Simons

Genres: Drama

Plot:
The daughter of a woman who wants to die, a crippled football player, a family man with a double
life, a happy thirty-some couple, a divorced family with an autistic son. They are all living
in one city, and in the next 24 hours, they have more in common with eachother as they think...

Cast:
Raymond Thiry 	 ... 	 Ben 
Gwen Maduro 	 ... 	 Linda 
Bruno Vanden Broecke 	 ... 	 Guus 
Jack Wouterse 	 ... 	 Johan 
Frieda Pittoors 	 ... 	 Ineke 
Joris Smit 	 ... 	 Wubbe 
Chris Zegers 	 ... 	 Mike 
Georgina Verbaan 	 ... 	 Elsa 
Yamill Jones 	 ... 	 Jeffrey 
Vefa Ocal 	 ... 	 Karim 
Peggy-Jane de Schepper 	 ... 	 Natasja 
Monic Hendrickx 	 ... 	 Petra 
Gaite Jansen 	 ... 	 Steintje 
Edda Barends 	 ... 	 Jet 
Nasrdin Dchar 	 ... 	 Sadik

Stats:
Format                           : AVI
Format/Info                      : Audio Video Interleave
File size                        : 700 MiB
Duration                         : 1h 37mn
Overall bit rate                 : 1 008 Kbps
Writing application              : VirtualDubMod 1.5.10.2 (build 2540/release)
Writing library                  : VirtualDubMod build 2540/release

Video
ID                               : 0
Format                           : MPEG-4 Visual
Format profile                   : Advanced Simple@L5
Format settings, BVOP            : Yes
Format settings, QPel            : No
Format settings, GMC             : No warppoints
Format settings, Matrix          : Default (H.263)
Muxing mode                      : Packed bitstream
Codec ID                         : XVID
Codec ID/Hint                    : XviD
Duration                         : 1h 37mn
Bit rate                         : 874 Kbps
Width                            : 624 pixels
Height                           : 336 pixels
Display aspect ratio             : 1.857
Frame rate                       : 25.000 fps
Color space                      : YUV
Chroma subsampling               : 4:2:0
Bit depth                        : 8 bits
Scan type                        : Progressive
Bits/(Pixel*Frame)               : 0.167
Stream size                      : 608 MiB (87%)
Writing library                  : XviD 62

Audio
ID                               : 1
Format                           : MPEG Audio
Format version                   : Version 1
Format profile                   : Layer 3
Mode                             : Joint stereo
Codec ID                         : 55
Codec ID/Hint                    : MP3
Duration                         : 1h 37mn
Bit rate mode                    : Variable
Bit rate                         : 121 Kbps
Nominal bit rate                 : 128 Kbps
Channel(s)                       : 2 channels
Sampling rate                    : 48.0 KHz
Stream size                      : 83.9 MiB (12%)
Alignment                        : Aligned on interleaves
Interleave, duration             : 24 ms (0.60 video frame)
Interleave, preload duration     : 505 ms
Writing library                  : LAME3.98r
Encoding settings                : -m j -V 4 -q 2 -lowpass 17 --abr 128




Release notes:
Other group release didn't have any subs.

enjoy!

Looking for:
75TB+ Archives
DUTCH/FLEMiSH Archives
                                                                                                    
Greets: CRBS EPiSODE FiCO FLS iLS KLASSiGER LiPSYNC MADE NODLABS RUNNER SPRiNTER      
   

                                                                    ASCII DONE BY XX^NFO 2oo9